<?xml version="1.0" standalone="no"?>
<!DOCTYPE svg PUBLIC "-//W3C//DTD SVG 20010904//EN"
 "http://www.w3.org/TR/2001/REC-SVG-20010904/DTD/svg10.dtd">
<svg version="1.0" xmlns="http://www.w3.org/2000/svg"
 width="260.000000pt" height="260.000000pt" viewBox="0 0 260.000000 260.000000"
 preserveAspectRatio="xMidYMid meet">
<metadata>
Created by potrace 1.11, written by Peter Selinger 2001-2013
</metadata>
<g transform="translate(0.000000,260.000000) scale(0.100000,-0.100000)"
fill="#000000" stroke="none">
<path d="M1223 2026 c-85 -31 -112 -109 -50 -146 58 -36 132 -21 176 36 39 50
22 89 -48 113 -38 12 -35 13 -78 -3z"/>
<path d="M1193 1801 c-45 -21 -73 -62 -73 -108 0 -15 17 -56 38 -90 20 -33 58
-96 83 -137 26 -42 64 -123 84 -179 83 -224 220 -468 323 -574 103 -106 221
-110 295 -11 43 58 27 175 -28 200 -57 26 -115 -31 -86 -85 28 -53 -5 -89 -60
-67 -79 33 -271 246 -333 367 -42 84 -43 98 -17 196 65 245 48 421 -48 484
-43 29 -119 30 -178 4z m172 -42 c63 -55 80 -167 49 -316 -19 -95 -36 -145
-49 -145 -16 0 -51 119 -85 285 -27 131 -26 172 2 191 31 22 42 20 83 -15z"/>
<path d="M940 1450 c0 -5 17 -21 38 -34 83 -53 142 -133 142 -193 0 -40 -39
-84 -98 -111 -47 -21 -77 -26 -186 -32 -139 -7 -177 -17 -206 -53 -18 -21 -18
-22 7 -38 95 -62 330 -4 459 113 96 88 130 207 80 283 -25 38 -114 75 -181 75
-30 0 -55 -4 -55 -10z"/>
<path d="M439 763 c-4 -33 1 -144 6 -153 11 -18 25 -1 25 31 0 27 2 29 40 29
38 0 40 -2 40 -30 0 -20 5 -30 15 -30 12 0 15 16 15 80 0 63 -3 80 -14 80 -9
0 -16 -12 -18 -32 -3 -30 -6 -33 -38 -33 -32 0 -35 3 -38 33 -2 20 -9 32 -18
32 -8 0 -14 -3 -15 -7z"/>
<path d="M651 753 c-12 -10 -24 -35 -28 -55 -5 -32 -1 -41 26 -69 27 -26 37
-30 64 -25 36 7 77 47 77 77 0 28 -26 75 -45 83 -30 11 -73 6 -94 -11z m94
-33 c36 -40 -16 -106 -64 -81 -47 26 -30 101 24 101 12 0 30 -9 40 -20z"/>
<path d="M845 746 c-40 -40 -31 -107 17 -132 35 -18 88 -10 88 13 0 11 -6 14
-26 9 -33 -9 -74 17 -74 45 0 41 18 59 61 59 52 0 48 24 -4 28 -28 2 -42 -3
-62 -22z"/>
<path d="M997 763 c-2 -5 -4 -39 -3 -78 1 -58 4 -70 19 -73 14 -3 17 4 17 35
l0 38 41 -45 c48 -51 65 -40 23 15 l-27 36 27 37 c33 47 14 58 -23 13 -32 -39
-41 -39 -41 -1 0 28 -22 43 -33 23z"/>
<path d="M1167 753 c-2 -10 -4 -45 -3 -78 l1 -59 35 -8 c38 -8 70 -2 70 13 0
5 -12 9 -27 9 -42 0 -60 15 -44 34 8 9 19 16 25 15 23 -3 36 1 36 11 0 6 -11
10 -24 10 -29 0 -56 27 -35 34 8 3 25 6 39 8 42 5 28 23 -22 26 -38 2 -47 0
-51 -15z"/>
<path d="M1300 764 c0 -3 12 -25 26 -49 14 -25 23 -49 19 -55 -10 -16 4 -62
15 -55 6 3 10 23 10 43 0 23 10 50 26 74 33 47 22 65 -13 24 l-25 -30 -20 27
c-18 24 -38 36 -38 21z"/>
<path d="M2060 722 c-33 -10 -60 -46 -60 -78 0 -26 8 -39 33 -58 43 -33 49
-33 92 5 41 37 43 51 10 94 -25 33 -49 45 -75 37z"/>
</g>
</svg>
